<?xml version="1.0" standalone="no"?>
<!DOCTYPE svg PUBLIC "-//W3C//DTD SVG 20010904//EN"
 "http://www.w3.org/TR/2001/REC-SVG-20010904/DTD/svg10.dtd">
<svg version="1.0" xmlns="http://www.w3.org/2000/svg"
 width="225.000000pt" height="225.000000pt" viewBox="0 0 225.000000 225.000000"
 preserveAspectRatio="xMidYMid meet">

<g transform="translate(0.000000,225.000000) scale(0.100000,-0.100000)"
fill="#000000" stroke="none">
<path d="M171 1398 c-88 -154 -46 -365 89 -445 108 -65 220 -30 296 92 l19 30
-32 -31 c-123 -121 -294 -66 -358 115 -20 59 -19 173 4 239 10 28 16 52 15 52
-2 0 -17 -23 -33 -52z"/>
<path d="M1590 1405 c-8 -9 -8 -15 -2 -15 12 0 26 19 19 26 -2 2 -10 -2 -17
-11z"/>
<path d="M657 1392 c-23 -25 -22 -85 1 -105 25 -22 65 -21 86 2 14 16 15 19 2
24 -8 3 -17 -1 -20 -9 -9 -23 -45 -16 -58 11 -22 48 25 98 59 64 6 -6 17 -9
23 -7 22 7 -19 38 -49 38 -15 0 -35 -8 -44 -18z"/>
<path d="M910 1340 c0 -40 4 -70 10 -70 6 0 10 30 10 70 0 40 -4 70 -10 70 -6
0 -10 -30 -10 -70z"/>
<path d="M1000 1399 c0 -5 5 -7 10 -4 6 3 10 8 10 11 0 2 -4 4 -10 4 -5 0 -10
-5 -10 -11z"/>
<path d="M1200 1400 c0 -5 5 -10 10 -10 6 0 10 5 10 10 0 6 -4 10 -10 10 -5 0
-10 -4 -10 -10z"/>
<path d="M1420 1400 c0 -5 9 -10 20 -10 17 0 20 -7 20 -44 0 -49 7 -76 21 -76
5 0 9 27 9 60 0 53 2 60 20 60 11 0 20 5 20 10 0 6 -25 10 -55 10 -30 0 -55
-4 -55 -10z"/>
<path d="M1900 1400 c0 -5 5 -10 10 -10 6 0 10 5 10 10 0 6 -4 10 -10 10 -5 0
-10 -4 -10 -10z"/>
<path d="M1573 1369 c-18 -6 -23 -16 -23 -42 0 -18 5 -38 12 -45 17 -17 53
-15 68 3 11 13 8 15 -20 13 -19 -2 -35 2 -37 10 -3 8 7 12 32 12 28 0 36 4 33
16 -5 26 -40 43 -65 33z m37 -24 c11 -13 8 -15 -14 -15 -25 0 -33 10 -19 23
10 11 19 8 33 -8z"/>
<path d="M1682 1364 c-12 -8 -22 -26 -22 -39 0 -25 24 -55 44 -55 19 0 52 27
43 36 -4 4 -13 2 -19 -4 -18 -18 -36 -14 -43 9 -10 29 18 57 39 40 9 -8 16 -8
20 -2 4 6 -2 15 -13 20 -25 14 -22 14 -49 -5z"/>
<path d="M1821 1371 c-8 -5 -20 -7 -28 -4 -10 4 -13 -6 -13 -40 0 -59 18 -71
22 -15 2 31 8 44 21 46 12 3 17 -3 17 -21 0 -32 9 -57 21 -57 13 0 11 74 -3
88 -14 14 -18 15 -37 3z"/>
<path d="M1907 1373 c-11 -10 -8 -91 3 -98 6 -4 10 15 10 49 0 57 -1 61 -13
49z"/>
<path d="M1966 1364 c-39 -38 6 -110 53 -84 12 6 21 15 21 20 0 13 -17 13 -25
0 -19 -30 -53 8 -39 44 5 13 14 16 38 11 29 -6 30 -5 12 10 -25 19 -40 19 -60
-1z"/>
<path d="M2082 1364 c-49 -34 -6 -106 52 -85 47 18 30 101 -21 101 -5 0 -19
-7 -31 -16z m53 -15 c12 -19 -4 -61 -23 -57 -30 6 -28 68 2 68 8 0 18 -5 21
-11z"/>
<path d="M796 1354 c-9 -8 -16 -24 -16 -34 0 -40 60 -66 88 -38 15 15 15 61 0
76 -17 17 -54 15 -72 -4z m59 -34 c0 -16 -6 -26 -19 -28 -23 -5 -35 13 -28 40
7 30 47 20 47 -12z"/>
<path d="M972 1358 c-17 -17 -15 -63 2 -78 18 -14 58 -10 64 8 3 9 -3 11 -21
7 -14 -4 -28 -2 -31 3 -7 12 11 20 42 17 14 -1 22 4 22 15 0 22 -20 40 -45 40
-12 0 -26 -5 -33 -12z m48 -13 c11 -13 8 -15 -15 -15 -23 0 -26 2 -15 15 7 8
14 15 15 15 1 0 8 -7 15 -15z"/>
<path d="M1082 1358 c-29 -29 1 -95 39 -85 12 3 19 0 19 -10 0 -12 -8 -14 -37
-8 -33 6 -35 5 -24 -9 16 -19 62 -21 79 -4 7 7 12 37 12 68 l0 57 -38 1 c-21
1 -44 -4 -50 -10z m57 -15 c11 -21 -3 -53 -23 -53 -19 0 -28 28 -16 51 13 24
26 24 39 2z"/>
<path d="M1200 1320 c0 -27 5 -50 10 -50 6 0 10 23 10 50 0 28 -4 50 -10 50
-5 0 -10 -22 -10 -50z"/>
<path d="M1262 1358 c-20 -20 -15 -66 9 -78 47 -26 100 25 72 69 -13 20 -64
26 -81 9z m63 -47 c-8 -28 -42 -27 -51 1 -9 30 23 55 44 34 9 -8 11 -22 7 -35z"/>
<path d="M440 1306 c0 -34 4 -46 13 -43 14 5 12 66 -3 81 -7 7 -10 -7 -10 -38z"/>
<path d="M260 1276 c-54 -22 -55 -23 -58 -65 -3 -39 -1 -43 15 -36 86 34 80
38 108 -64 10 -39 22 -71 25 -71 3 0 1 58 -4 130 -6 84 -13 130 -20 130 -6 -1
-36 -11 -66 -24z"/>
<path d="M874 1175 c-32 -32 -32 -78 1 -111 l25 -25 507 7 c434 6 511 9 526
22 22 19 23 80 1 110 l-16 23 -510 -1 -510 -1 -24 -24z m161 -61 c1 -32 -1
-35 -25 -32 -33 4 -42 47 -11 55 12 3 21 10 21 16 0 6 3 7 8 3 4 -4 7 -23 7
-42z m190 6 c0 -32 -2 -35 -30 -35 -28 0 -30 3 -33 38 -3 38 -3 38 30 35 30
-3 33 -6 33 -38z m293 3 c-2 -30 -7 -38 -22 -38 -11 0 -21 6 -24 14 -3 10 0
12 12 8 13 -5 16 0 16 23 0 17 5 30 11 30 6 0 9 -16 7 -37z m-413 -13 c0 -16
-6 -26 -18 -28 -19 -4 -32 20 -23 44 9 25 41 13 41 -16z m203 2 c4 -28 -24
-41 -44 -20 -20 20 -7 50 20 46 13 -2 22 -12 24 -26z m110 -4 c2 -16 -1 -28
-7 -28 -6 0 -12 12 -12 28 -1 20 -2 22 -6 7 -8 -35 -23 -41 -23 -10 0 31 -15
25 -22 -10 -5 -18 -6 -18 -13 -2 -14 32 2 48 42 45 33 -3 38 -7 41 -30z m178
4 c2 -29 -22 -40 -42 -20 -20 20 -7 50 20 46 14 -2 21 -11 22 -26z m74 3 c0
-27 -21 -42 -41 -30 -8 6 -7 10 2 16 10 6 11 9 2 9 -7 0 -13 7 -13 15 0 9 9
15 25 15 20 0 25 -5 25 -25z m40 5 c0 -11 5 -20 10 -20 6 0 10 9 10 20 0 11 5
20 10 20 6 0 10 -11 10 -25 0 -28 -25 -44 -43 -26 -13 13 -17 51 -5 51 4 0 8
-9 8 -20z m110 -4 c0 -30 -14 -40 -37 -27 -17 10 -16 10 2 11 19 1 19 1 2 11
-21 12 -13 29 14 29 14 0 19 -7 19 -24z"/>
<path d="M1000 1110 c0 -5 5 -10 10 -10 6 0 10 5 10 10 0 6 -4 10 -10 10 -5 0
-10 -4 -10 -10z"/>
<path d="M1188 1133 c7 -3 16 -2 19 1 4 3 -2 6 -13 5 -11 0 -14 -3 -6 -6z"/>
<path d="M1188 1103 c7 -3 16 -2 19 1 4 3 -2 6 -13 5 -11 0 -14 -3 -6 -6z"/>
<path d="M1276 1121 c-4 -7 -5 -15 -2 -18 9 -9 19 4 14 18 -4 11 -6 11 -12 0z"/>
<path d="M1513 960 c0 -25 2 -35 4 -22 2 12 2 32 0 45 -2 12 -4 2 -4 -23z"/>
<path d="M1282 958 c2 -28 8 -34 31 -36 25 -3 27 -1 25 35 -1 37 -1 37 -5 6
-6 -43 -33 -45 -33 -3 0 17 -5 30 -11 30 -6 0 -9 -14 -7 -32z"/>
<path d="M1360 955 c0 -19 5 -35 10 -35 6 0 10 6 10 14 0 8 8 17 18 19 16 4
16 5 0 6 -10 0 -18 5 -18 10 0 5 8 12 18 14 10 3 6 5 -10 6 -25 1 -28 -2 -28
-34z"/>
<path d="M1430 955 c0 -19 5 -35 10 -35 6 0 10 6 10 14 0 7 9 16 20 19 25 6
27 37 3 36 -11 0 -13 -3 -5 -6 17 -7 15 -23 -3 -23 -8 0 -15 7 -15 15 0 8 -4
15 -10 15 -5 0 -10 -16 -10 -35z"/>
</g>
</svg>
